<?xml version="1.0" encoding="UTF-8" standalone="no"?>
<!-- Created with Inkscape (http://www.inkscape.org/) -->

<svg
   width="100mm"
   height="100mm"
   viewBox="0 0 100 100"
   version="1.1"
   id="svg5"
   sodipodi:docname="plant05.svg"
   inkscape:version="1.1.2 (b8e25be833, 2022-02-05)"
   xmlns:inkscape="http://www.inkscape.org/namespaces/inkscape"
   xmlns:sodipodi="http://sodipodi.sourceforge.net/DTD/sodipodi-0.dtd"
   xmlns="http://www.w3.org/2000/svg"
   xmlns:svg="http://www.w3.org/2000/svg">
  <sodipodi:namedview
     id="namedview7"
     pagecolor="#505050"
     bordercolor="#eeeeee"
     borderopacity="1"
     inkscape:pageshadow="0"
     inkscape:pageopacity="0"
     inkscape:pagecheckerboard="0"
     inkscape:document-units="mm"
     showgrid="false"
     inkscape:lockguides="false"
     width="100mm"
     inkscape:zoom="1.4805976"
     inkscape:cx="62.474774"
     inkscape:cy="243.82047"
     inkscape:window-width="1920"
     inkscape:window-height="1017"
     inkscape:window-x="-8"
     inkscape:window-y="-8"
     inkscape:window-maximized="1"
     inkscape:current-layer="layer1"
     inkscape:snap-others="true"
     inkscape:snap-nodes="true" />
  <defs
     id="defs2">
    <inkscape:path-effect
       effect="spiro"
       id="path-effect2251"
       is_visible="true"
       lpeversion="1" />
    <inkscape:path-effect
       effect="spiro"
       id="path-effect2247"
       is_visible="true"
       lpeversion="1" />
    <inkscape:path-effect
       effect="spiro"
       id="path-effect2243"
       is_visible="true"
       lpeversion="1" />
    <inkscape:path-effect
       effect="spiro"
       id="path-effect2239"
       is_visible="true"
       lpeversion="1" />
    <inkscape:path-effect
       effect="spiro"
       id="path-effect2235"
       is_visible="true"
       lpeversion="1" />
    <inkscape:path-effect
       effect="spiro"
       id="path-effect2231"
       is_visible="true"
       lpeversion="1" />
    <inkscape:path-effect
       effect="spiro"
       id="path-effect2023"
       is_visible="true"
       lpeversion="1" />
    <inkscape:path-effect
       effect="spiro"
       id="path-effect1184"
       is_visible="true"
       lpeversion="1" />
    <inkscape:path-effect
       effect="spiro"
       id="path-effect1180"
       is_visible="true"
       lpeversion="1" />
    <inkscape:path-effect
       effect="spiro"
       id="path-effect1176"
       is_visible="true"
       lpeversion="1" />
    <inkscape:path-effect
       effect="spiro"
       id="path-effect1172"
       is_visible="true"
       lpeversion="1" />
    <inkscape:path-effect
       effect="spiro"
       id="path-effect1168"
       is_visible="true"
       lpeversion="1" />
    <inkscape:path-effect
       effect="spiro"
       id="path-effect1164"
       is_visible="true"
       lpeversion="1" />
    <inkscape:path-effect
       effect="spiro"
       id="path-effect1160"
       is_visible="true"
       lpeversion="1" />
    <inkscape:path-effect
       effect="spiro"
       id="path-effect1057"
       is_visible="true"
       lpeversion="1" />
    <inkscape:path-effect
       effect="spiro"
       id="path-effect10526"
       is_visible="true"
       lpeversion="1" />
    <inkscape:path-effect
       effect="spiro"
       id="path-effect10522"
       is_visible="true"
       lpeversion="1" />
    <inkscape:path-effect
       effect="spiro"
       id="path-effect10518"
       is_visible="true"
       lpeversion="1" />
    <inkscape:path-effect
       effect="spiro"
       id="path-effect10514"
       is_visible="true"
       lpeversion="1" />
    <inkscape:path-effect
       effect="spiro"
       id="path-effect10510"
       is_visible="true"
       lpeversion="1" />
    <inkscape:path-effect
       effect="spiro"
       id="path-effect10506"
       is_visible="true"
       lpeversion="1" />
    <inkscape:path-effect
       effect="spiro"
       id="path-effect10309"
       is_visible="true"
       lpeversion="1" />
    <inkscape:path-effect
       effect="spiro"
       id="path-effect10124"
       is_visible="true"
       lpeversion="1" />
    <inkscape:path-effect
       effect="spiro"
       id="path-effect8939"
       is_visible="true"
       lpeversion="1" />
    <inkscape:path-effect
       effect="spiro"
       id="path-effect8662"
       is_visible="true"
       lpeversion="1" />
    <inkscape:path-effect
       effect="spiro"
       id="path-effect8658"
       is_visible="true"
       lpeversion="1" />
    <linearGradient
       id="linearGradient8483"
       inkscape:swatch="solid">
      <stop
         style="stop-color:#000000;stop-opacity:1;"
         offset="0"
         id="stop8481" />
    </linearGradient>
    <linearGradient
       id="linearGradient8444"
       inkscape:swatch="solid">
      <stop
         style="stop-color:#000000;stop-opacity:1;"
         offset="0"
         id="stop8442" />
    </linearGradient>
    <inkscape:path-effect
       effect="spiro"
       id="path-effect8340"
       is_visible="true"
       lpeversion="1" />
    <inkscape:path-effect
       effect="powerstroke"
       id="path-effect8332"
       is_visible="true"
       lpeversion="1"
       offset_points="8,4.99214"
       not_jump="false"
       sort_points="true"
       interpolator_type="CubicBezierJohan"
       interpolator_beta="0.2"
       start_linecap_type="zerowidth"
       linejoin_type="extrp_arc"
       miter_limit="4"
       scale_width="1"
       end_linecap_type="zerowidth" />
    <inkscape:path-effect
       effect="spiro"
       id="path-effect7951"
       is_visible="true"
       lpeversion="1" />
    <inkscape:path-effect
       effect="spiro"
       id="path-effect7561"
       is_visible="true"
       lpeversion="1" />
    <inkscape:path-effect
       effect="spiro"
       id="path-effect7491"
       is_visible="true"
       lpeversion="1" />
    <inkscape:path-effect
       effect="spiro"
       id="path-effect7388"
       is_visible="true"
       lpeversion="1" />
    <inkscape:path-effect
       effect="spiro"
       id="path-effect6857"
       is_visible="true"
       lpeversion="1" />
    <inkscape:path-effect
       effect="spiro"
       id="path-effect6589"
       is_visible="true"
       lpeversion="1" />
    <inkscape:path-effect
       effect="spiro"
       id="path-effect5586"
       is_visible="true"
       lpeversion="1" />
    <inkscape:path-effect
       effect="spiro"
       id="path-effect5582"
       is_visible="true"
       lpeversion="1" />
    <inkscape:path-effect
       effect="spiro"
       id="path-effect5301"
       is_visible="true"
       lpeversion="1" />
    <inkscape:path-effect
       effect="skeletal"
       id="path-effect4206"
       is_visible="true"
       lpeversion="1"
       pattern="M 0,4.9921383 C 0,2.236478 2.236478,0 4.9921383,0 c 2.7556604,0 4.9921384,2.236478 4.9921384,4.9921383 0,2.7556604 -2.236478,4.9921384 -4.9921384,4.9921384 C 2.236478,9.9842767 0,7.7477987 0,4.9921383 Z"
       copytype="single_stretched"
       prop_scale="1"
       scale_y_rel="false"
       spacing="0"
       normal_offset="0"
       tang_offset="0"
       prop_units="false"
       vertical_pattern="false"
       hide_knot="false"
       fuse_tolerance="0" />
    <inkscape:path-effect
       effect="skeletal"
       id="path-effect4202"
       is_visible="true"
       lpeversion="1"
       pattern="M 0,4.9921383 C 0,2.236478 2.236478,0 4.9921383,0 c 2.7556604,0 4.9921384,2.236478 4.9921384,4.9921383 0,2.7556604 -2.236478,4.9921384 -4.9921384,4.9921384 C 2.236478,9.9842767 0,7.7477987 0,4.9921383 Z"
       copytype="single_stretched"
       prop_scale="1"
       scale_y_rel="false"
       spacing="0"
       normal_offset="0"
       tang_offset="0"
       prop_units="false"
       vertical_pattern="false"
       hide_knot="false"
       fuse_tolerance="0" />
    <linearGradient
       id="linearGradient4047"
       inkscape:swatch="solid">
      <stop
         style="stop-color:#000000;stop-opacity:1;"
         offset="0"
         id="stop4045" />
    </linearGradient>
    <inkscape:path-effect
       effect="skeletal"
       id="path-effect1941"
       is_visible="true"
       lpeversion="1"
       pattern="m -6.6119136,3.0264343 c 0,-2.75566033 2.236478,-4.9921383 4.9921383,-4.9921383 2.7556604,0 4.9921384,2.23647797 4.9921384,4.9921383 0,2.7556604 -2.236478,4.9921384 -4.9921384,4.9921384 -2.7556603,0 -4.9921383,-2.236478 -4.9921383,-4.9921384 z"
       copytype="single_stretched"
       prop_scale="1"
       scale_y_rel="false"
       spacing="0"
       normal_offset="0"
       tang_offset="0"
       prop_units="false"
       vertical_pattern="false"
       hide_knot="false"
       fuse_tolerance="0" />
    <inkscape:path-effect
       effect="skeletal"
       id="path-effect1937"
       is_visible="true"
       lpeversion="1"
       pattern="M 0,4.9921383 C 0,2.236478 2.236478,0 4.9921383,0 c 2.7556604,0 4.9921384,2.236478 4.9921384,4.9921383 0,2.7556604 -2.236478,4.9921384 -4.9921384,4.9921384 C 2.236478,9.9842767 0,7.7477987 0,4.9921383 Z"
       copytype="single_stretched"
       prop_scale="1"
       scale_y_rel="false"
       spacing="0"
       normal_offset="0"
       tang_offset="0"
       prop_units="false"
       vertical_pattern="false"
       hide_knot="false"
       fuse_tolerance="0" />
    <inkscape:path-effect
       effect="fill_between_many"
       method="bsplinespiro"
       linkedpaths="#path8328,0,1"
       id="path-effect8334" />
  </defs>
  <g
     inkscape:label="Layer 1"
     inkscape:groupmode="layer"
     id="layer1">
    <path
       style="fill:none;stroke:#000000;stroke-width:4.99999;stroke-linecap:round;stroke-linejoin:round;stroke-miterlimit:4;stroke-dasharray:none;stroke-opacity:1"
       d="m 68.44224,35.025272 c 9.033448,-0.286527 18.088909,4.115055 23.444265,11.395539 5.355356,7.280484 6.860549,17.235869 3.896891,25.774137 -2.91336,8.393359 -10.058228,15.194724 -18.584838,17.691335"
       id="path1055"
       inkscape:path-effect="#path-effect1057"
       inkscape:original-d="M 68.44224,35.025272 C 67.489436,43.126617 96.736729,64.094128 95.783396,72.194948 94.830062,80.295767 82.4407,84.049001 77.198558,89.886283"
       sodipodi:nodetypes="csc" />
    <path
       style="fill:none;stroke:#000000;stroke-width:4.99999;stroke-linecap:round;stroke-linejoin:round;stroke-miterlimit:4;stroke-dasharray:none;stroke-opacity:1"
       d="m 70.765343,94.889893 c 3.414608,-2.091354 6.275992,-5.077146 8.220218,-8.577617 3.108677,-5.597002 3.772238,-12.498038 1.787004,-18.584839"
       id="path1158"
       inkscape:path-effect="#path-effect1160"
       inkscape:original-d="m 70.765343,94.889893 c 2.740338,-2.858942 5.48041,-5.718146 8.220218,-8.577617 2.739808,-2.859471 1.191601,-12.389628 1.787004,-18.584839" />
    <path
       style="fill:none;stroke:#000000;stroke-width:4.99999;stroke-linecap:round;stroke-linejoin:round;stroke-miterlimit:4;stroke-dasharray:none;stroke-opacity:1"
       d="m 80.772565,67.727437 c -3.720253,-0.703028 -7.659474,-0.194742 -11.079422,1.429602 -4.303212,2.043861 -7.728735,5.864636 -9.29242,10.364624"
       id="path1162"
       inkscape:path-effect="#path-effect1164"
       inkscape:original-d="m 80.772565,67.727437 c -3.692877,0.476798 -7.386018,0.953334 -11.079422,1.429602 -3.693406,0.476271 -6.194681,6.910015 -9.29242,10.364624" />
    <path
       style="fill:none;stroke:#000000;stroke-width:4.99999;stroke-linecap:round;stroke-linejoin:round;stroke-miterlimit:4;stroke-dasharray:none;stroke-opacity:1"
       d="M 56.111916,95.604694 C 59.064859,90.813776 60.576055,85.146788 60.400723,79.521663 60.183007,72.536739 57.330695,65.66526 52.537907,60.579422"
       id="path1166"
       inkscape:path-effect="#path-effect1168"
       inkscape:original-d="M 56.111916,95.604694 C 57.065247,91.077882 59.447918,84.049004 60.400723,79.521663 61.353527,74.994322 55.15911,66.893767 52.537907,60.579422"
       sodipodi:nodetypes="csc" />
    <path
       style="fill:none;stroke:#000000;stroke-width:4.99999;stroke-linecap:round;stroke-linejoin:round;stroke-miterlimit:4;stroke-dasharray:none;stroke-opacity:1"
       d="m 52.537907,60.579422 c -4.980173,0.922874 -9.611716,3.624608 -12.866426,7.505417 -3.232869,3.854766 -5.084515,8.84435 -5.149009,13.874907 -0.0645,5.030557 1.658626,10.065972 4.791608,14.002351"
       id="path1170"
       inkscape:path-effect="#path-effect1172"
       inkscape:original-d="m 52.537907,60.579422 c -4.251814,2.50207 -41.802699,-30.582066 -12.866426,7.505417 3.003726,3.953666 -0.238003,19.657305 -0.357401,27.877258"
       sodipodi:nodetypes="csc" />
    <path
       style="fill:none;stroke:#000000;stroke-width:4.99999;stroke-linecap:round;stroke-linejoin:round;stroke-miterlimit:4;stroke-dasharray:none;stroke-opacity:1"
       d="M 24.863848,94.499497 C 19.861355,92.129008 15.751412,87.927733 13.491426,82.874357 12.007702,79.55672 11.309445,75.890865 11.469663,72.260096"
       id="path1174"
       inkscape:path-effect="#path-effect1176"
       inkscape:original-d="M 24.863848,94.499497 C 21.073306,90.624717 17.282498,86.749669 13.491426,82.874357 9.7003544,78.999044 12.143848,75.798449 11.469663,72.260096" />
    <path
       style="fill:none;stroke:#000000;stroke-width:4.99999;stroke-linecap:round;stroke-linejoin:round;stroke-miterlimit:4;stroke-dasharray:none;stroke-opacity:1"
       d="m 11.469663,72.260096 c 4.345462,-0.905416 8.928959,-0.640983 13.141465,0.758161 3.580834,1.18934 6.889019,3.191663 9.603378,5.812571"
       id="path1178"
       inkscape:path-effect="#path-effect1180"
       inkscape:original-d="m 11.469663,72.260096 c 4.380753,0.252984 8.761241,0.505706 13.141465,0.758161 4.380223,0.252458 6.402517,3.875313 9.603378,5.812571" />
    <path
       style="fill:none;stroke:#000000;stroke-width:4.99999;stroke-linecap:round;stroke-linejoin:round;stroke-miterlimit:4;stroke-dasharray:none;stroke-opacity:1"
       d="m 24.863848,94.499495 c 0.705822,0.1345 1.412476,0.264636 2.119908,0.390398 6.846603,1.217138 13.776322,2.024751 20.729241,2.144405 7.73172,0.133056 15.47783,-0.587512 23.052346,-2.144405"
       id="path1182"
       inkscape:path-effect="#path-effect1184"
       inkscape:original-d="m 24.863848,94.499495 c 0.7069,0.130397 1.413536,0.26053 2.119908,0.390398 0.706371,0.129868 13.819758,1.429866 20.729241,2.144405 6.909482,0.714537 15.368495,-1.42934 23.052346,-2.144405" />
    <path
       style="fill:none;stroke:#000000;stroke-width:4.99999;stroke-linecap:round;stroke-linejoin:round;stroke-miterlimit:4;stroke-dasharray:none;stroke-opacity:1"
       d="M 18.584838,90.064983 C 13.792082,87.593085 9.7986133,83.599618 7.3267148,78.806862 5.1999943,74.683371 4.1982631,69.986539 4.4575497,65.354165 4.7168363,60.72179 6.2364573,56.166085 8.8100581,52.305684 11.383659,48.445282 15.004455,45.290361 19.180767,43.269337 c 4.176312,-2.021024 8.897131,-2.902823 13.5214,-2.525655"
       id="path2021"
       inkscape:path-effect="#path-effect2023"
       inkscape:original-d="M 18.584838,90.064983 C 14.891961,86.49124 11.02012,82.381131 7.3267148,78.806862 3.6333096,75.23259 27.34142,54.444309 32.702167,40.743682"
       sodipodi:nodetypes="csc" />
    <path
       style="fill:none;stroke:#000000;stroke-width:4.99999;stroke-linecap:round;stroke-linejoin:round;stroke-miterlimit:4;stroke-dasharray:none;stroke-opacity:1"
       d="m 32.702166,40.743682 c -1.212409,-3.296311 -1.401953,-6.960814 -0.536101,-10.364621 0.330726,-1.300141 0.811458,-2.56206 1.429604,-3.752707"
       id="path2229"
       inkscape:path-effect="#path-effect2231"
       inkscape:original-d="m 32.702166,40.743682 c -0.178435,-3.454609 -0.357134,-6.909483 -0.536101,-10.364621 -0.178964,-3.455138 0.953333,-2.50154 1.429604,-3.752707" />
    <path
       style="fill:none;stroke:#000000;stroke-width:4.99999;stroke-linecap:round;stroke-linejoin:round;stroke-miterlimit:4;stroke-dasharray:none;stroke-opacity:1"
       d="m 68.442239,35.025271 c 0.11545,-2.233892 -0.189265,-4.488789 -0.893501,-6.611913 -0.972959,-2.933267 -2.714545,-5.607847 -5.003609,-7.684116"
       id="path2233"
       inkscape:path-effect="#path-effect2235"
       inkscape:original-d="M 68.442239,35.025271 C 68.14467,32.821565 67.846836,30.617594 67.548738,28.413358 67.25064,26.209122 64.213263,23.290879 62.545129,20.729242" />
    <path
       style="fill:none;stroke:#000000;stroke-width:4.99999;stroke-linecap:round;stroke-linejoin:round;stroke-miterlimit:4;stroke-dasharray:none;stroke-opacity:1"
       d="m 33.595669,26.626354 7.684114,3.395308"
       id="path2237"
       inkscape:path-effect="#path-effect2239"
       inkscape:original-d="m 33.595669,26.626354 c 2.561635,1.132033 5.123008,2.263801 7.684114,3.395308" />
    <path
       style="fill:none;stroke:#000000;stroke-width:4.99999;stroke-linecap:round;stroke-linejoin:round;stroke-miterlimit:4;stroke-dasharray:none;stroke-opacity:1"
       d="m 41.279783,30.021662 5.718414,-9.828521"
       id="path2241"
       inkscape:path-effect="#path-effect2243"
       inkscape:original-d="m 41.279783,30.021662 c 1.251167,-2.680242 4.467773,-7.147751 5.718414,-9.828521"
       sodipodi:nodetypes="cc" />
    <path
       style="fill:none;stroke:#000000;stroke-width:4.99999;stroke-linecap:round;stroke-linejoin:round;stroke-miterlimit:4;stroke-dasharray:none;stroke-opacity:1"
       d="m 46.998197,20.193141 9.113718,6.343863"
       id="path2245"
       inkscape:path-effect="#path-effect2247"
       inkscape:original-d="m 46.998197,20.193141 c 2.859468,1.310734 6.254776,5.033658 9.113718,6.343863"
       sodipodi:nodetypes="cc" />
    <path
       style="fill:none;stroke:#000000;stroke-width:4.99999;stroke-linecap:round;stroke-linejoin:round;stroke-miterlimit:4;stroke-dasharray:none;stroke-opacity:1"
       d="m 62.545129,20.729242 -6.433214,5.807762"
       id="path2249"
       inkscape:path-effect="#path-effect2251"
       inkscape:original-d="m 62.545129,20.729242 c -2.978076,1.727701 -3.454609,4.080589 -6.433214,5.807762"
       sodipodi:nodetypes="cc" />
    <path
       style="fill:#ffffff;stroke:#000000;stroke-width:2.91023626;stroke-linecap:round;stroke-linejoin:round;stroke-miterlimit:4;stroke-dasharray:none;stroke-opacity:1"
       d="m 313.06385,317.94594 c 1.32194,-3.14507 3.81489,-12.56521 4.68834,-17.71597 2.37266,-13.99157 1.94831,-26.55664 -1.36711,-40.48022 -2.80181,-11.76662 -4.22322,-13.01436 -16.26164,-14.27486 -22.77053,-2.38421 -45.92882,5.92124 -62.58075,22.44386 -2.15263,2.13592 -4.02036,3.51424 -4.15052,3.06296 -4.43305,-15.37071 -13.01185,-31.40992 -23.55881,-44.04632 -6.83788,-8.19252 -8.76957,-8.86436 -18.41743,-6.40563 -26.4899,6.7509 -48.10765,23.95822 -60.345,48.03346 -2.19672,4.32173 -4.35957,9.07776 -4.80635,10.56898 l -0.81232,2.71129 -4.47263,-3.0234 c -6.17605,-4.17488 -18.07039,-9.89959 -25.747813,-12.39234 -14.467904,-4.69753 -34.065714,-6.19497 -48.957375,-3.74077 -11.224268,1.8498 -12.498038,3.46578 -12.501769,15.86046 -0.0014,4.61243 -0.155742,8.23303 -0.343006,8.04577 -0.810535,-0.81054 -3.925352,-10.79999 -5.216338,-16.7292 -1.853651,-8.51338 -2.000263,-24.65504 -0.302081,-33.25834 3.694376,-18.71641 12.590077,-35.08168 26.137612,-48.08493 17.424089,-16.72405 37.61404,-24.79087 62.11844,-24.81918 11.0434,-0.0128 13.26132,-0.6255 15.52563,-4.28924 1.76118,-2.84964 1.73684,-6.90683 -0.075,-12.51218 -2.07351,-6.41465 -2.52953,-19.81212 -0.93328,-27.41852 0.65515,-3.12192 1.33785,-5.67622 1.51712,-5.67622 0.17927,0 5.12193,2.12752 10.98371,4.72782 11.14379,4.94342 13.4877,5.44186 17.23295,3.66462 2.61848,-1.24255 3.13411,-1.99686 12.79839,-18.72259 4.03411,-6.981736 7.66697,-12.566578 8.07302,-12.410762 0.40605,0.155816 6.5114,4.322479 13.56745,9.259252 11.59317,8.11118 13.15452,9.00318 16.20618,9.25864 1.85736,0.15548 4.05077,0.0265 4.87426,-0.28652 0.82348,-0.31307 5.60141,-4.2894 10.61762,-8.83628 5.01621,-4.546894 9.24564,-8.267076 9.39873,-8.267076 0.59348,0 5.86723,8.661586 7.81337,12.832656 2.98723,6.40235 4.6656,13.79532 5.17507,22.79531 0.7214,12.74385 2.08694,13.97456 16.15319,14.55835 14.17753,0.5884 25.87241,3.49273 38.38674,9.53306 31.9625,15.42743 52.05095,45.73368 54.20612,81.77754 1.8477,30.90185 -12.43911,61.36668 -37.85618,80.72353 -6.44829,4.91082 -7.60039,5.51219 -6.76849,3.53299 z"
       id="path3365"
       transform="scale(0.26458333)" />
    <path
       style="fill:#666666;stroke:#000000;stroke-width:1.96558;stroke-linecap:round;stroke-linejoin:round;stroke-miterlimit:4;stroke-dasharray:none;stroke-opacity:1"
       d="m 124.94955,352.43962 c -0.92868,-0.15096 -7.46321,-1.2066 -14.52117,-2.34587 C 99.326802,348.30177 97.042795,347.71821 93.496779,345.76773 71.830857,333.85042 56.136849,310.2606 53.636208,285.85292 l -0.448035,-4.37308 4.981002,-0.44594 c 9.357597,-0.83776 24.402768,1.4371 34.405759,5.20222 8.951606,3.36937 18.904246,9.1823 25.180526,14.7069 l 3.14167,2.76541 v 7.32316 c 0,13.96943 2.62555,25.72131 9.08957,40.6845 0.42256,0.97817 0.1779,1.1661 -1.41903,1.08998 -1.06129,-0.0506 -2.68944,-0.21549 -3.61812,-0.36645 z"
       id="path3630"
       transform="scale(0.26458333)" />
    <path
       style="fill:#666666;stroke:#000000;stroke-width:1.96558;stroke-linecap:round;stroke-linejoin:round;stroke-miterlimit:4;stroke-dasharray:none;stroke-opacity:1"
       d="m 163.09551,356.31015 c -3.72258,-0.24186 -7.12487,-0.66009 -7.56065,-0.92942 -1.40722,-0.86971 -6.97699,-10.36381 -9.27103,-15.80319 -5.02517,-11.91514 -6.96521,-26.79954 -5.14378,-39.46426 2.85077,-19.82192 15.08569,-39.11376 31.89169,-50.28637 5.30734,-3.52831 14.45349,-7.93487 18.98506,-9.14688 3.70586,-0.99117 2.90097,-1.68235 9.61432,8.25612 20.25655,29.98786 22.35744,68.65162 5.48693,100.9789 l -3.4953,6.69771 -16.86945,0.0686 c -9.2782,0.0377 -19.9152,-0.12932 -23.63779,-0.37118 z"
       id="path3669"
       transform="scale(0.26458333)" />
    <path
       style="fill:#666666;stroke:#000000;stroke-width:1.96558;stroke-linecap:round;stroke-linejoin:round;stroke-miterlimit:4;stroke-dasharray:none;stroke-opacity:1"
       d="m 227.30147,353.7423 c 5.11359,-11.83718 8.75215,-25.28717 9.78067,-36.15445 1.69454,-17.90427 1.64898,-17.68115 4.70013,-23.01387 5.75865,-10.06483 14.41748,-18.28768 24.6642,-23.42233 8.49056,-4.25464 15.52438,-6.06497 24.28737,-6.25093 l 6.72689,-0.14276 0.84435,3.71472 c 4.10011,18.03853 -0.44277,40.91436 -11.52824,58.05074 -3.79713,5.86976 -13.45908,16.03311 -19.02183,20.00895 -3.69979,2.64433 -4.83969,3.06082 -11.81956,4.31857 -6.83434,1.23152 -26.70057,4.07331 -28.47551,4.07331 -0.38145,0 -0.44957,-0.50809 -0.15847,-1.18195 z"
       id="path3708"
       transform="scale(0.26458333)" />
  </g>
</svg>
