<?xml version="1.0" encoding="UTF-8" standalone="no"?>
<!-- Created with Inkscape (http://www.inkscape.org/) -->

<svg
   width="100mm"
   height="100mm"
   viewBox="0 0 100 100"
   version="1.1"
   id="svg5"
   sodipodi:docname="plant06.svg"
   inkscape:version="1.1.2 (b8e25be833, 2022-02-05)"
   xmlns:inkscape="http://www.inkscape.org/namespaces/inkscape"
   xmlns:sodipodi="http://sodipodi.sourceforge.net/DTD/sodipodi-0.dtd"
   xmlns="http://www.w3.org/2000/svg"
   xmlns:svg="http://www.w3.org/2000/svg">
  <sodipodi:namedview
     id="namedview7"
     pagecolor="#505050"
     bordercolor="#eeeeee"
     borderopacity="1"
     inkscape:pageshadow="0"
     inkscape:pageopacity="0"
     inkscape:pagecheckerboard="0"
     inkscape:document-units="mm"
     showgrid="false"
     inkscape:lockguides="false"
     width="100mm"
     inkscape:zoom="2.0938812"
     inkscape:cx="139.69274"
     inkscape:cy="204.4051"
     inkscape:window-width="1920"
     inkscape:window-height="1017"
     inkscape:window-x="-8"
     inkscape:window-y="-8"
     inkscape:window-maximized="1"
     inkscape:current-layer="layer1"
     inkscape:snap-others="true"
     inkscape:snap-nodes="true" />
  <defs
     id="defs2">
    <inkscape:path-effect
       effect="spiro"
       id="path-effect1342"
       is_visible="true"
       lpeversion="1" />
    <inkscape:path-effect
       effect="spiro"
       id="path-effect4145"
       is_visible="true"
       lpeversion="1" />
    <inkscape:path-effect
       effect="spiro"
       id="path-effect3709"
       is_visible="true"
       lpeversion="1" />
    <inkscape:path-effect
       effect="spiro"
       id="path-effect3388"
       is_visible="true"
       lpeversion="1" />
    <inkscape:path-effect
       effect="spiro"
       id="path-effect3384"
       is_visible="true"
       lpeversion="1" />
    <inkscape:path-effect
       effect="spiro"
       id="path-effect3380"
       is_visible="true"
       lpeversion="1" />
    <inkscape:path-effect
       effect="spiro"
       id="path-effect3376"
       is_visible="true"
       lpeversion="1" />
    <inkscape:path-effect
       effect="spiro"
       id="path-effect3368"
       is_visible="true"
       lpeversion="1" />
    <inkscape:path-effect
       effect="spiro"
       id="path-effect3364"
       is_visible="true"
       lpeversion="1" />
    <inkscape:path-effect
       effect="spiro"
       id="path-effect3340"
       is_visible="true"
       lpeversion="1" />
    <inkscape:path-effect
       effect="spiro"
       id="path-effect3336"
       is_visible="true"
       lpeversion="1" />
    <inkscape:path-effect
       effect="spiro"
       id="path-effect3332"
       is_visible="true"
       lpeversion="1" />
    <inkscape:path-effect
       effect="spiro"
       id="path-effect3324"
       is_visible="true"
       lpeversion="1" />
    <inkscape:path-effect
       effect="spiro"
       id="path-effect3002"
       is_visible="true"
       lpeversion="1" />
    <inkscape:path-effect
       effect="spiro"
       id="path-effect2998"
       is_visible="true"
       lpeversion="1" />
    <inkscape:path-effect
       effect="spiro"
       id="path-effect2649"
       is_visible="true"
       lpeversion="1" />
    <inkscape:path-effect
       effect="spiro"
       id="path-effect2645"
       is_visible="true"
       lpeversion="1" />
    <inkscape:path-effect
       effect="spiro"
       id="path-effect2641"
       is_visible="true"
       lpeversion="1" />
    <inkscape:path-effect
       effect="spiro"
       id="path-effect2637"
       is_visible="true"
       lpeversion="1" />
    <inkscape:path-effect
       effect="spiro"
       id="path-effect2633"
       is_visible="true"
       lpeversion="1" />
    <inkscape:path-effect
       effect="spiro"
       id="path-effect2629"
       is_visible="true"
       lpeversion="1" />
    <inkscape:path-effect
       effect="spiro"
       id="path-effect2625"
       is_visible="true"
       lpeversion="1" />
    <inkscape:path-effect
       effect="spiro"
       id="path-effect2189"
       is_visible="true"
       lpeversion="1" />
    <inkscape:path-effect
       effect="spiro"
       id="path-effect1859"
       is_visible="true"
       lpeversion="1" />
    <inkscape:path-effect
       effect="spiro"
       id="path-effect1855"
       is_visible="true"
       lpeversion="1" />
    <inkscape:path-effect
       effect="spiro"
       id="path-effect1851"
       is_visible="true"
       lpeversion="1" />
    <inkscape:path-effect
       effect="spiro"
       id="path-effect1847"
       is_visible="true"
       lpeversion="1" />
    <inkscape:path-effect
       effect="spiro"
       id="path-effect1839"
       is_visible="true"
       lpeversion="1" />
    <inkscape:path-effect
       effect="spiro"
       id="path-effect1835"
       is_visible="true"
       lpeversion="1" />
    <inkscape:path-effect
       effect="spiro"
       id="path-effect1831"
       is_visible="true"
       lpeversion="1" />
    <inkscape:path-effect
       effect="spiro"
       id="path-effect1794"
       is_visible="true"
       lpeversion="1" />
    <inkscape:path-effect
       effect="powerstroke"
       id="path-effect1722"
       is_visible="true"
       lpeversion="1"
       offset_points="0,4.99214"
       not_jump="false"
       sort_points="true"
       interpolator_type="CubicBezierJohan"
       interpolator_beta="0.2"
       start_linecap_type="zerowidth"
       linejoin_type="extrp_arc"
       miter_limit="4"
       scale_width="1"
       end_linecap_type="zerowidth" />
    <inkscape:path-effect
       effect="bspline"
       id="path-effect1685"
       is_visible="true"
       lpeversion="1"
       weight="33.333333"
       steps="2"
       helper_size="0"
       apply_no_weight="true"
       apply_with_weight="true"
       only_selected="false" />
    <inkscape:path-effect
       effect="spiro"
       id="path-effect2251"
       is_visible="true"
       lpeversion="1" />
    <inkscape:path-effect
       effect="spiro"
       id="path-effect2247"
       is_visible="true"
       lpeversion="1" />
    <inkscape:path-effect
       effect="spiro"
       id="path-effect2243"
       is_visible="true"
       lpeversion="1" />
    <inkscape:path-effect
       effect="spiro"
       id="path-effect2239"
       is_visible="true"
       lpeversion="1" />
    <inkscape:path-effect
       effect="spiro"
       id="path-effect2235"
       is_visible="true"
       lpeversion="1" />
    <inkscape:path-effect
       effect="spiro"
       id="path-effect2231"
       is_visible="true"
       lpeversion="1" />
    <inkscape:path-effect
       effect="spiro"
       id="path-effect2023"
       is_visible="true"
       lpeversion="1" />
    <inkscape:path-effect
       effect="spiro"
       id="path-effect1184"
       is_visible="true"
       lpeversion="1" />
    <inkscape:path-effect
       effect="spiro"
       id="path-effect1180"
       is_visible="true"
       lpeversion="1" />
    <inkscape:path-effect
       effect="spiro"
       id="path-effect1176"
       is_visible="true"
       lpeversion="1" />
    <inkscape:path-effect
       effect="spiro"
       id="path-effect1172"
       is_visible="true"
       lpeversion="1" />
    <inkscape:path-effect
       effect="spiro"
       id="path-effect1168"
       is_visible="true"
       lpeversion="1" />
    <inkscape:path-effect
       effect="spiro"
       id="path-effect1164"
       is_visible="true"
       lpeversion="1" />
    <inkscape:path-effect
       effect="spiro"
       id="path-effect1160"
       is_visible="true"
       lpeversion="1" />
    <inkscape:path-effect
       effect="spiro"
       id="path-effect1057"
       is_visible="true"
       lpeversion="1" />
    <inkscape:path-effect
       effect="spiro"
       id="path-effect10526"
       is_visible="true"
       lpeversion="1" />
    <inkscape:path-effect
       effect="spiro"
       id="path-effect10522"
       is_visible="true"
       lpeversion="1" />
    <inkscape:path-effect
       effect="spiro"
       id="path-effect10518"
       is_visible="true"
       lpeversion="1" />
    <inkscape:path-effect
       effect="spiro"
       id="path-effect10514"
       is_visible="true"
       lpeversion="1" />
    <inkscape:path-effect
       effect="spiro"
       id="path-effect10510"
       is_visible="true"
       lpeversion="1" />
    <inkscape:path-effect
       effect="spiro"
       id="path-effect10506"
       is_visible="true"
       lpeversion="1" />
    <inkscape:path-effect
       effect="spiro"
       id="path-effect10309"
       is_visible="true"
       lpeversion="1" />
    <inkscape:path-effect
       effect="spiro"
       id="path-effect10124"
       is_visible="true"
       lpeversion="1" />
    <inkscape:path-effect
       effect="spiro"
       id="path-effect8939"
       is_visible="true"
       lpeversion="1" />
    <inkscape:path-effect
       effect="spiro"
       id="path-effect8662"
       is_visible="true"
       lpeversion="1" />
    <inkscape:path-effect
       effect="spiro"
       id="path-effect8658"
       is_visible="true"
       lpeversion="1" />
    <linearGradient
       id="linearGradient8483"
       inkscape:swatch="solid">
      <stop
         style="stop-color:#000000;stop-opacity:1;"
         offset="0"
         id="stop8481" />
    </linearGradient>
    <linearGradient
       id="linearGradient8444"
       inkscape:swatch="solid">
      <stop
         style="stop-color:#000000;stop-opacity:1;"
         offset="0"
         id="stop8442" />
    </linearGradient>
    <inkscape:path-effect
       effect="spiro"
       id="path-effect8340"
       is_visible="true"
       lpeversion="1" />
    <inkscape:path-effect
       effect="powerstroke"
       id="path-effect8332"
       is_visible="true"
       lpeversion="1"
       offset_points="8,4.99214"
       not_jump="false"
       sort_points="true"
       interpolator_type="CubicBezierJohan"
       interpolator_beta="0.2"
       start_linecap_type="zerowidth"
       linejoin_type="extrp_arc"
       miter_limit="4"
       scale_width="1"
       end_linecap_type="zerowidth" />
    <inkscape:path-effect
       effect="spiro"
       id="path-effect7951"
       is_visible="true"
       lpeversion="1" />
    <inkscape:path-effect
       effect="spiro"
       id="path-effect7561"
       is_visible="true"
       lpeversion="1" />
    <inkscape:path-effect
       effect="spiro"
       id="path-effect7491"
       is_visible="true"
       lpeversion="1" />
    <inkscape:path-effect
       effect="spiro"
       id="path-effect7388"
       is_visible="true"
       lpeversion="1" />
    <inkscape:path-effect
       effect="spiro"
       id="path-effect6857"
       is_visible="true"
       lpeversion="1" />
    <inkscape:path-effect
       effect="spiro"
       id="path-effect6589"
       is_visible="true"
       lpeversion="1" />
    <inkscape:path-effect
       effect="spiro"
       id="path-effect5586"
       is_visible="true"
       lpeversion="1" />
    <inkscape:path-effect
       effect="spiro"
       id="path-effect5582"
       is_visible="true"
       lpeversion="1" />
    <inkscape:path-effect
       effect="spiro"
       id="path-effect5301"
       is_visible="true"
       lpeversion="1" />
    <inkscape:path-effect
       effect="skeletal"
       id="path-effect4206"
       is_visible="true"
       lpeversion="1"
       pattern="M 0,4.9921383 C 0,2.236478 2.236478,0 4.9921383,0 c 2.7556604,0 4.9921384,2.236478 4.9921384,4.9921383 0,2.7556604 -2.236478,4.9921384 -4.9921384,4.9921384 C 2.236478,9.9842767 0,7.7477987 0,4.9921383 Z"
       copytype="single_stretched"
       prop_scale="1"
       scale_y_rel="false"
       spacing="0"
       normal_offset="0"
       tang_offset="0"
       prop_units="false"
       vertical_pattern="false"
       hide_knot="false"
       fuse_tolerance="0" />
    <inkscape:path-effect
       effect="skeletal"
       id="path-effect4202"
       is_visible="true"
       lpeversion="1"
       pattern="M 0,4.9921383 C 0,2.236478 2.236478,0 4.9921383,0 c 2.7556604,0 4.9921384,2.236478 4.9921384,4.9921383 0,2.7556604 -2.236478,4.9921384 -4.9921384,4.9921384 C 2.236478,9.9842767 0,7.7477987 0,4.9921383 Z"
       copytype="single_stretched"
       prop_scale="1"
       scale_y_rel="false"
       spacing="0"
       normal_offset="0"
       tang_offset="0"
       prop_units="false"
       vertical_pattern="false"
       hide_knot="false"
       fuse_tolerance="0" />
    <linearGradient
       id="linearGradient4047"
       inkscape:swatch="solid">
      <stop
         style="stop-color:#000000;stop-opacity:1;"
         offset="0"
         id="stop4045" />
    </linearGradient>
    <inkscape:path-effect
       effect="skeletal"
       id="path-effect1941"
       is_visible="true"
       lpeversion="1"
       pattern="m -6.6119136,3.0264343 c 0,-2.75566033 2.236478,-4.9921383 4.9921383,-4.9921383 2.7556604,0 4.9921384,2.23647797 4.9921384,4.9921383 0,2.7556604 -2.236478,4.9921384 -4.9921384,4.9921384 -2.7556603,0 -4.9921383,-2.236478 -4.9921383,-4.9921384 z"
       copytype="single_stretched"
       prop_scale="1"
       scale_y_rel="false"
       spacing="0"
       normal_offset="0"
       tang_offset="0"
       prop_units="false"
       vertical_pattern="false"
       hide_knot="false"
       fuse_tolerance="0" />
    <inkscape:path-effect
       effect="skeletal"
       id="path-effect1937"
       is_visible="true"
       lpeversion="1"
       pattern="M 0,4.9921383 C 0,2.236478 2.236478,0 4.9921383,0 c 2.7556604,0 4.9921384,2.236478 4.9921384,4.9921383 0,2.7556604 -2.236478,4.9921384 -4.9921384,4.9921384 C 2.236478,9.9842767 0,7.7477987 0,4.9921383 Z"
       copytype="single_stretched"
       prop_scale="1"
       scale_y_rel="false"
       spacing="0"
       normal_offset="0"
       tang_offset="0"
       prop_units="false"
       vertical_pattern="false"
       hide_knot="false"
       fuse_tolerance="0" />
    <inkscape:path-effect
       effect="fill_between_many"
       method="bsplinespiro"
       linkedpaths="#path8328,0,1"
       id="path-effect8334" />
  </defs>
  <g
     inkscape:label="Layer 1"
     inkscape:groupmode="layer"
     id="layer1">
    <path
       style="fill:none;fill-opacity:1;stroke:#000000;stroke-width:4;stroke-linecap:round;stroke-linejoin:round;stroke-miterlimit:60;stroke-dasharray:none;stroke-opacity:1;paint-order:stroke fill markers"
       d="m 63.995533,78.284628 c 2.606785,2.543419 5.872798,4.405383 9.389397,5.352925 5.568066,1.500307 11.734345,0.628326 16.668085,-2.357053"
       id="path1829"
       inkscape:path-effect="#path-effect1831"
       inkscape:original-d="m 63.995533,78.284628 c 1.969713,1.236962 7.418967,4.116168 9.389397,5.352925 1.970433,1.236759 11.111697,-1.571265 16.668085,-2.357053"
       sodipodi:nodetypes="csc" />
    <path
       style="fill:none;fill-opacity:1;stroke:#000000;stroke-width:4;stroke-linecap:round;stroke-linejoin:round;stroke-miterlimit:60;stroke-dasharray:none;stroke-opacity:1;paint-order:stroke fill markers"
       d="m 90.053015,81.2805 c 0.96348,-1.421486 1.366454,-3.212306 1.104743,-4.909487 -0.122763,-0.796113 -0.386706,-1.57025 -0.775848,-2.275541"
       id="path1833"
       inkscape:path-effect="#path-effect1835"
       inkscape:original-d="m 90.053015,81.2805 c 0.367888,-1.636394 0.736136,-3.27289 1.104743,-4.909487 0.368607,-1.636598 -0.517591,-1.516925 -0.775848,-2.275541" />
    <path
       style="fill:none;fill-opacity:1;stroke:#000000;stroke-width:4;stroke-linecap:round;stroke-linejoin:round;stroke-miterlimit:60;stroke-dasharray:none;stroke-opacity:1;paint-order:stroke fill markers"
       d="m 90.38191,74.095472 c 2.237025,-2.10805 3.963071,-4.754601 4.990309,-7.651658 0.498772,-1.406656 0.834828,-2.870933 0.999325,-4.354306"
       id="path1837"
       inkscape:path-effect="#path-effect1839"
       inkscape:original-d="m 90.38191,74.095472 c 1.663077,-2.55045 3.326512,-5.101003 4.990309,-7.651658 1.663795,-2.550655 0.665855,-2.902769 0.999325,-4.354306" />
    <path
       style="fill:none;fill-opacity:1;stroke:#000000;stroke-width:4;stroke-linecap:round;stroke-linejoin:round;stroke-miterlimit:60;stroke-dasharray:none;stroke-opacity:1;paint-order:stroke fill markers"
       d="m 96.371544,62.089508 c -2.219755,-0.633267 -4.528135,-0.955036 -6.836454,-0.952946 -1.755196,0.0016 -3.510165,0.189924 -5.225731,0.560801"
       id="path1845"
       inkscape:path-effect="#path-effect1847"
       inkscape:original-d="m 96.371544,62.089508 c -2.279176,-0.317546 -4.557997,-0.635196 -6.836454,-0.952946 -2.278461,-0.317751 -3.484181,0.373969 -5.225731,0.560801" />
    <path
       style="fill:none;fill-opacity:1;stroke:#000000;stroke-width:4;stroke-linecap:round;stroke-linejoin:round;stroke-miterlimit:60;stroke-dasharray:none;stroke-opacity:1;paint-order:stroke fill markers"
       d="m 84.309359,61.697363 c 0.260794,-0.84008 0.08937,-1.80213 -0.44555,-2.500423 -0.332892,-0.434566 -0.797863,-0.766546 -1.316974,-0.940295"
       id="path1849"
       inkscape:path-effect="#path-effect1851"
       inkscape:original-d="M 84.309359,61.697363 C 84.160483,60.86399 84.011965,60.030517 83.863809,59.19694 83.715651,58.363365 82.985466,58.570178 82.546835,58.256645" />
    <path
       style="fill:none;fill-opacity:1;stroke:#000000;stroke-width:4;stroke-linecap:round;stroke-linejoin:round;stroke-miterlimit:60;stroke-dasharray:none;stroke-opacity:1;paint-order:stroke fill markers"
       d="m 82.546835,58.256645 c -3.403903,0.609158 -6.676566,1.94166 -9.537871,3.883454 -3.319699,2.252878 -6.077993,5.326422 -7.959885,8.869633"
       id="path1853"
       inkscape:path-effect="#path-effect1855"
       inkscape:original-d="m 82.546835,58.256645 c -3.17965,1.294586 -6.358942,2.589071 -9.537871,3.883454 -3.178932,1.294382 -5.009116,6.151457 -7.959885,8.869633"
       sodipodi:nodetypes="csc" />
    <path
       style="fill:none;fill-opacity:1;stroke:#000000;stroke-width:3;stroke-linecap:round;stroke-linejoin:round;stroke-miterlimit:60;stroke-dasharray:none;stroke-opacity:1;paint-order:stroke fill markers"
       d="m 89.880141,65.832411 c -3.358629,1.650224 -6.791827,3.148669 -10.285609,4.489233 -3.701273,1.420178 -7.470537,2.663146 -11.290559,3.723221"
       id="path1857"
       inkscape:path-effect="#path-effect1859"
       inkscape:original-d="m 89.880141,65.832411 c -3.428894,1.496512 -6.857433,2.992922 -10.285609,4.489233 -3.428177,1.496307 -7.527399,2.48225 -11.290559,3.723221" />
    <path
       style="fill:none;fill-opacity:1;stroke:#000000;stroke-width:4;stroke-linecap:round;stroke-linejoin:round;stroke-miterlimit:60;stroke-dasharray:none;stroke-opacity:1;paint-order:stroke fill markers"
       d="M 65.049078,71.00973 C 66.658374,64.577099 66.726593,57.76444 65.246436,51.300873 63.197829,42.354993 58.145463,34.124572 51.095579,28.2488 44.045695,22.373028 35.039623,18.886351 25.871035,18.483186"
       id="path2187"
       inkscape:path-effect="#path-effect2189"
       inkscape:original-d="M 65.049078,71.00973 C 65.115128,64.440377 65.180914,57.870757 65.246436,51.300873 65.311956,44.730991 39.095127,20.151321 25.871035,18.483186"
       sodipodi:nodetypes="csc" />
    <path
       style="fill:none;fill-opacity:1;stroke:#000000;stroke-width:4;stroke-linecap:round;stroke-linejoin:round;stroke-miterlimit:60;stroke-dasharray:none;stroke-opacity:1;paint-order:stroke fill markers"
       d="m 16.014936,66.498743 c -0.345586,-7.721136 3.365988,-15.510826 9.580158,-20.106418 3.178333,-2.350487 6.958759,-3.888006 10.880583,-4.38387 3.524834,-0.445669 7.185093,-0.04126 10.437566,1.388601 3.252474,1.429857 6.072547,3.914119 7.69417,7.075355 1.45274,2.832011 1.91087,6.113145 1.608772,9.281658 -0.302098,3.168514 -1.336357,6.234548 -2.724333,9.098856 -1.026687,2.11873 -2.249616,4.142314 -3.648026,6.036397"
       id="path2623"
       inkscape:path-effect="#path-effect2625"
       inkscape:original-d="m 16.014936,66.498743 c -1.608039,-7.207316 11.188726,-12.898573 9.580158,-20.106418 -1.608567,-7.207845 5.400703,1.036971 10.880583,-4.38387 5.47988,-5.420842 11.222253,6.021981 18.131736,8.463956 3.454742,1.220988 6.373952,112.896869 -1.115561,18.380514 -0.450024,-5.679227 -3.052227,1.420103 -3.648026,6.036397"
       sodipodi:nodetypes="cssssc" />
    <path
       style="fill:none;fill-opacity:1;stroke:#000000;stroke-width:4;stroke-linecap:round;stroke-linejoin:round;stroke-miterlimit:60;stroke-dasharray:none;stroke-opacity:1;paint-order:stroke fill markers"
       d="m 63.995533,78.284628 c -2.939923,0.998512 -5.339197,3.466335 -6.254514,6.433214 -0.651146,2.110602 -0.565882,4.440723 0.237777,6.498091 0.80366,2.057369 2.320381,3.828326 4.229734,4.938733"
       id="path2627"
       inkscape:path-effect="#path-effect2629"
       inkscape:original-d="m 63.995533,78.284628 c -2.084572,2.144671 -4.169412,4.289073 -6.254514,6.433214 -2.085102,2.144139 2.978605,7.624813 4.467511,11.436824" />
    <path
       style="fill:none;fill-opacity:1;stroke:#000000;stroke-width:4;stroke-linecap:round;stroke-linejoin:round;stroke-miterlimit:60;stroke-dasharray:none;stroke-opacity:1;paint-order:stroke fill markers"
       d="m 49.843826,74.889322 c -2.616827,3.890654 -5.346982,7.705084 -8.185838,11.436822 -2.59121,3.406203 -5.272979,6.743514 -8.041517,10.007221"
       id="path2631"
       inkscape:path-effect="#path-effect2633"
       inkscape:original-d="m 49.843826,74.889322 c -3.990711,3.097736 -4.194599,8.339615 -8.185838,11.436822 -3.99124,3.09721 -5.360747,6.671746 -8.041517,10.007221"
       sodipodi:nodetypes="csc" />
    <path
       style="fill:none;fill-opacity:1;stroke:#000000;stroke-width:4;stroke-linecap:round;stroke-linejoin:round;stroke-miterlimit:60;stroke-dasharray:none;stroke-opacity:1;paint-order:stroke fill markers"
       d="m 33.616471,96.333363 c 2.843346,-1.993503 5.905502,-3.674686 9.113717,-5.003607 1.288689,-0.533806 2.600845,-1.010955 3.931409,-1.429605"
       id="path2635"
       inkscape:path-effect="#path-effect2637"
       inkscape:original-d="m 33.616471,96.333363 c 3.03817,-1.667605 6.076076,-3.335473 9.113717,-5.003607 3.037644,-1.668134 2.621203,-0.952804 3.931409,-1.429605" />
    <path
       style="fill:none;fill-opacity:1;stroke:#000000;stroke-width:4;stroke-linecap:round;stroke-linejoin:round;stroke-miterlimit:60;stroke-dasharray:none;stroke-opacity:1;paint-order:stroke fill markers"
       d="m 46.661597,89.900149 0.536102,6.969318"
       id="path2639"
       inkscape:path-effect="#path-effect2641"
       inkscape:original-d="m 46.661597,89.900149 c 0.178965,2.323372 0.357664,4.646477 0.536102,6.969318" />
    <path
       style="fill:none;fill-opacity:1;stroke:#000000;stroke-width:4;stroke-linecap:round;stroke-linejoin:round;stroke-miterlimit:60;stroke-dasharray:none;stroke-opacity:1;paint-order:stroke fill markers"
       d="m 47.197699,96.869467 3.574007,-6.075812"
       id="path2643"
       inkscape:path-effect="#path-effect2645"
       inkscape:original-d="M 47.197699,96.869467 C 48.3893,94.84446 49.580634,92.819188 50.771706,90.793655" />
    <path
       style="fill:none;fill-opacity:1;stroke:#000000;stroke-width:4;stroke-linecap:round;stroke-linejoin:round;stroke-miterlimit:60;stroke-dasharray:none;stroke-opacity:1;paint-order:stroke fill markers"
       d="m 50.771706,90.793655 c 0.690733,2.242812 2.350946,4.16866 4.467508,5.182309 2.159128,1.034035 4.760033,1.100725 6.969316,0.178702"
       id="path2647"
       inkscape:path-effect="#path-effect2649"
       inkscape:original-d="m 50.771706,90.793655 c 1.489435,1.7277 2.978603,3.455138 4.467508,5.182309 1.488906,1.727173 4.646475,0.119398 6.969316,0.178702" />
    <path
       style="fill:none;fill-opacity:1;stroke:#000000;stroke-width:4;stroke-linecap:round;stroke-linejoin:round;stroke-miterlimit:60;stroke-dasharray:none;stroke-opacity:1;paint-order:stroke fill markers"
       d="m 25.871035,18.483186 c 6.371659,2.620107 12.315339,6.277717 17.52571,10.784937 2.842186,2.458627 5.467151,5.168269 7.834334,8.087055"
       id="path2996"
       inkscape:path-effect="#path-effect2998"
       inkscape:original-d="m 25.871035,18.483186 c 6.179127,3.616304 11.34711,7.169162 17.52571,10.784937 6.178598,3.615774 5.223153,5.391636 7.834334,8.087055"
       sodipodi:nodetypes="csc" />
    <path
       style="fill:none;fill-opacity:1;stroke:#000000;stroke-width:4;stroke-linecap:round;stroke-linejoin:round;stroke-miterlimit:60;stroke-dasharray:none;stroke-opacity:1;paint-order:stroke fill markers"
       d="m 51.231079,37.355178 c -7.624987,-3.176932 -16.777267,-2.398015 -23.755726,2.021763 -4.411186,2.793807 -7.940474,6.958442 -9.972839,11.768162 -2.032365,4.80972 -2.558804,10.24322 -1.487578,15.35364"
       id="path3000"
       inkscape:path-effect="#path-effect3002"
       inkscape:original-d="M 51.231079,37.355178 C 43.312769,38.029363 35.394192,38.703286 27.475353,39.376941 19.556515,40.0506 16.886934,52.99368 16.014936,66.498743"
       sodipodi:nodetypes="csc" />
    <path
       style="fill:none;fill-opacity:1;stroke:#000000;stroke-width:4;stroke-linecap:round;stroke-linejoin:round;stroke-miterlimit:60;stroke-dasharray:none;stroke-opacity:1;paint-order:stroke fill markers"
       d="m 16.014936,66.498741 c 1.38468,0.957954 2.318941,2.540384 2.488841,4.21554 0.104642,1.03174 -0.07184,2.090614 -0.505441,3.032646"
       id="path3322"
       inkscape:path-effect="#path-effect3324"
       inkscape:original-d="m 16.014936,66.498741 c 0.829878,1.405445 1.659492,2.810626 2.488841,4.21554 0.829349,1.404916 -0.336696,2.022031 -0.505441,3.032646" />
    <path
       style="fill:none;fill-opacity:1;stroke:#000000;stroke-width:4;stroke-linecap:round;stroke-linejoin:round;stroke-miterlimit:60;stroke-dasharray:none;stroke-opacity:1;paint-order:stroke fill markers"
       d="m 16.014936,66.498741 c -1.062773,0.11427 -2.091981,0.526013 -2.940318,1.176298 -0.848336,0.650284 -1.513306,1.537198 -1.899735,2.533801 -0.597041,1.539772 -0.502655,3.333098 0.252721,4.80169"
       id="path3330"
       inkscape:path-effect="#path-effect3332"
       inkscape:original-d="m 16.014936,66.498741 c -1.613086,1.236964 -3.226437,2.473664 -4.840053,3.710099 -1.6136147,1.236437 0.168745,3.201392 0.252721,4.80169" />
    <path
       style="fill:none;fill-opacity:1;stroke:#000000;stroke-width:4;stroke-linecap:round;stroke-linejoin:round;stroke-miterlimit:60;stroke-dasharray:none;stroke-opacity:1;paint-order:stroke fill markers"
       d="m 17.998336,73.746927 c 1.307154,0.667684 2.397323,1.752305 3.071666,3.056036 0.674344,1.303731 0.929575,2.820217 0.719141,4.272859 -0.249183,1.720135 -1.156854,3.336527 -2.495869,4.444677 -1.339015,1.10815 -3.096637,1.697517 -4.833025,1.620613"
       id="path3334"
       inkscape:path-effect="#path-effect3336"
       inkscape:original-d="m 17.998336,73.746927 c 1.263867,2.443229 2.527469,4.886193 3.790807,7.328895 1.263338,2.442699 -4.885664,4.043791 -7.328894,6.06529" />
    <path
       style="fill:none;fill-opacity:1;stroke:#000000;stroke-width:4;stroke-linecap:round;stroke-linejoin:round;stroke-miterlimit:60;stroke-dasharray:none;stroke-opacity:1;paint-order:stroke fill markers"
       d="m 11.427604,75.01053 c -1.210003,0.463204 -2.2698222,1.310117 -2.98851,2.388149 -0.7186877,1.078031 -1.0928299,2.382062 -1.0550171,3.677143 0.051033,1.747882 0.8688787,3.459796 2.1965355,4.597787 1.3276566,1.137992 3.1445126,1.684393 4.8796366,1.467503"
       id="path3338"
       inkscape:path-effect="#path-effect3340"
       inkscape:original-d="m 11.427604,75.01053 c -1.347578,2.022027 -2.6954201,4.043791 -4.0435271,6.065292 -1.3481074,2.021499 4.7177121,4.043791 7.0761721,6.06529" />
    <path
       style="fill:none;fill-opacity:1;stroke:#000000;stroke-width:3.5;stroke-linecap:round;stroke-linejoin:round;stroke-miterlimit:60;stroke-dasharray:none;stroke-opacity:1;paint-order:stroke fill markers"
       d="m 25.871035,18.483186 c 0.458997,-0.893416 0.538209,-1.974365 0.214355,-2.925149 -0.162391,-0.476755 -0.421957,-0.92018 -0.75816,-1.295192"
       id="path3362"
       inkscape:path-effect="#path-effect3364"
       inkscape:original-d="m 25.871035,18.483186 c 0.07172,-0.974785 0.143169,-1.949835 0.214355,-2.925149 0.07119,-0.975314 -0.420935,-0.873727 -0.75816,-1.295192"
       sodipodi:nodetypes="csc" />
    <path
       style="fill:none;fill-opacity:1;stroke:#000000;stroke-width:3.5;stroke-linecap:round;stroke-linejoin:round;stroke-miterlimit:60;stroke-dasharray:none;stroke-opacity:1;paint-order:stroke fill markers"
       d="m 25.871035,18.483186 c 0.502302,1.102745 0.514459,2.41825 0.03262,3.53009 -0.481836,1.11184 -1.450065,2.002477 -2.598192,2.389978 -0.893682,0.301624 -1.886243,0.301624 -2.779925,0"
       id="path3366"
       inkscape:path-effect="#path-effect3368"
       inkscape:original-d="m 25.871035,18.483186 c -0.854925,1.973621 -1.710115,3.946977 -2.565569,5.920068 -0.855454,1.973092 -1.853019,2.65e-4 -2.779925,0" />
    <path
       style="fill:none;fill-opacity:1;stroke:#000000;stroke-width:3.5;stroke-linecap:round;stroke-linejoin:round;stroke-miterlimit:60;stroke-dasharray:none;stroke-opacity:1;paint-order:stroke fill markers"
       d="m 20.525541,24.403254 c -0.476209,-0.08634 -0.911042,-0.380149 -1.168832,-0.789751 -0.268467,-0.426567 -0.339608,-0.971985 -0.18954,-1.453143"
       id="path3374"
       inkscape:path-effect="#path-effect3376"
       inkscape:original-d="M 20.525541,24.403254 C 20.136195,24.140268 19.746584,23.877018 19.356709,23.613503 18.966833,23.349988 19.230613,22.645005 19.167169,22.16036" />
    <path
       style="fill:none;fill-opacity:1;stroke:#000000;stroke-width:3.5;stroke-linecap:round;stroke-linejoin:round;stroke-miterlimit:60;stroke-dasharray:none;stroke-opacity:1;paint-order:stroke fill markers"
       d="m 19.167169,22.16036 c -1.287543,-0.147069 -2.53351,-0.64325 -3.569677,-1.421553 -1.662389,-1.248681 -2.749547,-3.233927 -2.906286,-5.30713"
       id="path3378"
       inkscape:path-effect="#path-effect3380"
       inkscape:original-d="m 19.167169,22.16036 c -1.189628,-0.473587 -2.37952,-0.947437 -3.569677,-1.421553 -1.190157,-0.474115 -1.93726,-3.537822 -2.906286,-5.30713" />
    <path
       style="fill:none;fill-opacity:1;stroke:#000000;stroke-width:3.5;stroke-linecap:round;stroke-linejoin:round;stroke-miterlimit:60;stroke-dasharray:none;stroke-opacity:1;paint-order:stroke fill markers"
       d="m 12.691206,15.431677 c 1.468743,-0.838449 3.11779,-1.3592 4.801689,-1.516323 1.052387,-0.0982 2.117825,-0.05558 3.159006,0.126361"
       id="path3382"
       inkscape:path-effect="#path-effect3384"
       inkscape:original-d="m 12.691206,15.431677 c 1.600828,-0.505176 3.201391,-1.010617 4.801689,-1.516323 1.600299,-0.505705 2.106269,0.08451 3.159006,0.126361" />
    <path
       style="fill:none;fill-opacity:1;stroke:#000000;stroke-width:3.5;stroke-linecap:round;stroke-linejoin:round;stroke-miterlimit:60;stroke-dasharray:none;stroke-opacity:1;paint-order:stroke fill markers"
       d="m 20.651901,14.041715 c 0.502168,-0.737428 1.382313,-1.201949 2.274484,-1.200423 0.487782,8.34e-4 0.974691,0.134622 1.394416,0.383143 0.419725,0.248522 0.771154,0.611118 1.006429,1.03841"
       id="path3386"
       inkscape:path-effect="#path-effect3388"
       inkscape:original-d="m 20.651901,14.041715 c 0.758426,-0.399877 1.516588,-0.800017 2.274484,-1.200423 0.757898,-0.400405 1.685068,0.937436 2.400845,1.421553"
       sodipodi:nodetypes="csc" />
    <path
       style="fill:none;fill-opacity:1;stroke:#000000;stroke-width:2;stroke-linecap:round;stroke-linejoin:round;stroke-miterlimit:60;stroke-dasharray:none;stroke-opacity:1;paint-order:stroke fill markers"
       d="m 22.559075,18.196272 c -1.478677,0.12475 -2.976674,0.01775 -4.422608,-0.315901 -0.169228,-0.03905 -0.337746,-0.08118 -0.505441,-0.12636"
       id="path3707"
       inkscape:path-effect="#path-effect3709"
       inkscape:original-d="m 22.559075,18.196272 c -1.473938,-0.105036 -2.948141,-0.210336 -4.422608,-0.315901 -1.474468,-0.105565 -0.336696,-0.08397 -0.505441,-0.12636" />
    <path
       style="fill:#ffffff;stroke:#ffffff;stroke-width:1.88976;stroke-linecap:round;stroke-linejoin:round;stroke-miterlimit:60;stroke-dasharray:none;stroke-opacity:1;paint-order:stroke fill markers"
       d="m 212.41423,355.67582 c -4.95166,-2.28187 -8.92197,-6.50508 -11.9003,-12.65829 -2.99263,-6.18277 -4.74329,-7.67996 -8.98015,-7.67996 -1.67942,0 -3.0553,0.59823 -4.70285,2.0448 l -3.342,4.91526 0.20956,-5.30524 c 0.1193,-3.02022 -4.05791,-5.02564 -7.25839,-5.02931 -1.21219,-10e-4 -5.45756,1.19754 -9.43416,2.66428 -3.9766,1.46675 -10.0199,4.60491 -10.12759,4.49722 -0.10768,-0.10768 7.02013,-8.27284 12.53763,-15.66831 13.33798,-17.87779 31.09616,-43.6464 35.56416,-51.60658 14.69795,-26.18582 19.11874,-51.54 12.7928,-73.3695 -8.78841,-30.32695 -38.70742,-49.77359 -73.85519,-48.0041 -16.19256,0.81521 -32.66034,6.0013 -45.889238,14.45161 -1.990798,1.27167 -11.516566,8.93636 -11.675209,8.77772 -0.456061,-0.45606 14.830967,-13.47662 20.022667,-16.96689 14.51226,-9.75629 31.23351,-14.67916 49.97981,-14.71448 11.30389,-0.0213 19.25191,1.27868 29.84363,4.8812 7.87899,2.67985 9.86191,2.63712 12.7743,-0.27527 1.93725,-1.93724 2.29637,-2.77597 2.29637,-5.36315 0,-2.74817 -0.43813,-3.61477 -4.21709,-8.34123 -8.61895,-10.77999 -27.23977,-28.52564 -39.87085,-37.996941 -2.14581,-1.609015 -10.18967,-7.106039 -10.03305,-7.262652 0.61747,-0.617471 20.6172,10.824301 28.20198,15.903793 22.22478,14.8838 39.90045,35.16898 51.58647,59.20231 10.539,21.67437 14.73128,38.64999 15.35136,62.16158 0.39302,14.90211 -0.24582,22.75635 -2.9203,35.904 -1.52997,7.52126 -1.58974,8.44238 -0.68792,10.60073 0.5432,1.30006 1.56903,2.72684 2.27963,3.17062 1.25681,0.78488 1.23704,0.98681 -0.72537,7.41292 l -2.01737,6.60606 -5.13454,2.53523 c -7.53693,3.72143 -15.79683,12.13312 -19.52628,19.88512 -6.64876,13.82005 -4.01726,33.15192 3.37319,45.20124 2.15961,3.52099 -0.37949,1.33229 -4.51571,-0.57379 z"
       id="path2177"
       transform="scale(0.26458333)"
       sodipodi:nodetypes="sssscscssssssssssssssssssssssscssss" />
    <path
       style="fill:#ececec;stroke:#ececec;stroke-width:1.8897638;stroke-linecap:round;stroke-linejoin:round;stroke-miterlimit:60;stroke-dasharray:none;stroke-opacity:1;paint-order:stroke fill markers"
       d="m 290.36986,310.65522 c -15.04366,-1.82261 -28.86165,-7.98158 -40.3998,-18.00704 -4.74413,-4.12216 -5.30114,-4.42744 -8.07839,-4.42744 -1.5364,0 -2.1682,-0.18299 -2.06112,-0.59697 0.0849,-0.32834 0.89482,-3.11803 1.79975,-6.19931 l 1.64535,-5.60233 1.75288,0.2803 c 2.13143,0.34083 5.66806,-1.07918 6.85162,-2.75102 0.43985,-0.62131 1.86639,-2.93845 3.17009,-5.14918 9.99711,-16.95252 26.59811,-30.4063 45.58764,-36.94511 2.6267,-0.90447 5.92831,-1.91691 7.33692,-2.24985 3.09956,-0.73263 3.46556,-0.38937 3.07759,2.88634 -0.34795,2.93795 0.49507,5.32916 2.49915,7.08876 2.26385,1.98769 4.28755,2.24532 9.71885,1.23727 6.43832,-1.19495 20.26043,-1.47992 26.71559,-0.55079 2.71315,0.39051 5.05598,0.83302 5.2063,0.98335 0.50429,0.50429 -3.15693,10.98928 -5.30784,15.20056 -3.06024,5.99168 -6.16293,10.41745 -10.71218,15.28021 -5.84307,6.24576 -6.31307,7.89125 -3.94968,13.82801 1.80799,4.54163 2.17959,7.2574 1.46441,10.70237 -1.04971,5.05647 -1.61911,5.76876 -6.45407,8.07382 -5.30753,2.53036 -13.80395,5.22936 -19.56136,6.21392 -5.38373,0.92067 -15.59208,1.27473 -20.3017,0.70413 z m -23.60035,-27.16908 c 15.31692,-4.44912 33.0943,-10.71866 48.19583,-16.99719 12.45432,-5.17795 27.60812,-12.30302 28.9392,-13.60675 2.4406,-2.39046 2.07178,-7.02503 -0.70378,-8.84365 -2.56864,-1.68304 -4.43619,-1.45387 -9.84852,1.20849 -19.31462,9.50101 -46.05503,19.8252 -68.76827,26.55069 -4.85746,1.43831 -9.33483,2.94475 -9.94972,3.34765 -2.40557,1.57618 -2.99695,5.5028 -1.234,8.1934 0.74919,1.1434 3.12509,2.44054 4.53399,2.47536 0.41598,0.0103 4.39185,-1.03732 8.83527,-2.328 z"
       id="path3449"
       transform="scale(0.26458333)" />
    <path
       style="fill:#ececec;stroke:#ececec;stroke-width:1.8897638;stroke-linecap:round;stroke-linejoin:round;stroke-miterlimit:60;stroke-dasharray:none;stroke-opacity:1;paint-order:stroke fill markers"
       d="m 80.114383,85.874344 c -0.59663,-0.155916 -0.835769,-0.700179 -0.835769,-1.902147 0,-2.30185 -1.308221,-4.870686 -3.006411,-5.903416 -0.776227,-0.472052 -2.658942,-1.07804 -4.183813,-1.346641 -3.820038,-0.672886 -7.666371,-2.596458 -10.484211,-5.243211 -2.438166,-2.290129 -5.727084,-7.285527 -5.727084,-8.698623 0,-0.573924 1.026884,-1.111722 3.701261,-1.938424 3.308196,-1.022627 4.614184,-1.146493 12.297737,-1.166375 9.082484,-0.0235 9.904073,-0.190022 11.604709,-2.352031 1.166771,-1.483308 2.887546,-2.157668 4.228028,-1.656934 1.469545,0.548944 4.301552,4.445635 4.674056,6.431252 0.244652,1.304107 0.0948,1.967753 -0.661372,2.929074 -2.071827,2.633902 -2.184584,6.478571 -0.275457,9.392267 0.631001,0.963029 0.788459,1.90556 0.616795,3.692093 -0.512068,5.329195 -6.464105,9.19633 -11.948469,7.763116 z m 6.969199,-13.573333 c 1.150519,-0.524211 2.224254,-2.227897 2.224254,-3.529201 0,-1.284258 -1.067427,-3.002116 -2.18058,-3.509302 -0.616049,-0.280691 -3.439933,-0.51021 -6.275298,-0.510042 -2.835365,1.67e-4 -7.373516,-0.377321 -10.08478,-0.838864 -5.583255,-0.950446 -7.056728,-0.599692 -7.931636,1.888094 -1.138656,3.23775 1.104544,5.080773 7.613664,6.255421 4.621629,0.834029 15.005037,0.986271 16.634376,0.243894 z"
       id="path3642"
       transform="scale(0.26458333)" />
    <path
       style="fill:#808080;stroke:#808080;stroke-width:1.8897638;stroke-linecap:round;stroke-linejoin:round;stroke-miterlimit:60;stroke-dasharray:none;stroke-opacity:1;paint-order:stroke fill markers"
       d="m 46.423339,320.74684 c -6.752639,-2.3324 -11.026791,-8.95437 -10.490193,-16.25251 0.425606,-5.78854 3.44854,-10.24023 8.898346,-13.10402 6.009947,-3.15814 7.287145,-6.13378 5.10611,-11.89634 -2.41266,-6.37454 -1.393745,-11.70869 3.094849,-16.20194 3.445182,-3.44875 4.976532,-3.92147 6.50412,-2.00779 2.637664,3.30432 3.308625,9.22278 1.549272,13.66592 -1.750903,4.42181 -0.762616,7.81706 3.000705,10.3089 7.967224,5.27539 11.815327,12.63711 10.502244,20.0916 -1.359146,7.71599 -6.73769,13.628 -14.155611,15.55962 -3.938681,1.02562 -10.799023,0.94559 -14.009842,-0.16344 z"
       id="path3718"
       transform="scale(0.26458333)" />
  </g>
</svg>
