<?xml version="1.0" encoding="UTF-8" standalone="no"?>
<!-- Created with Inkscape (http://www.inkscape.org/) -->

<svg
   width="100mm"
   height="100mm"
   viewBox="0 0 100 100"
   version="1.1"
   id="svg5"
   sodipodi:docname="skull.svg"
   inkscape:version="1.1.2 (b8e25be833, 2022-02-05)"
   xmlns:inkscape="http://www.inkscape.org/namespaces/inkscape"
   xmlns:sodipodi="http://sodipodi.sourceforge.net/DTD/sodipodi-0.dtd"
   xmlns="http://www.w3.org/2000/svg"
   xmlns:svg="http://www.w3.org/2000/svg">
  <sodipodi:namedview
     id="namedview7"
     pagecolor="#505050"
     bordercolor="#eeeeee"
     borderopacity="1"
     inkscape:pageshadow="0"
     inkscape:pageopacity="0"
     inkscape:pagecheckerboard="0"
     inkscape:document-units="mm"
     showgrid="false"
     inkscape:lockguides="false"
     width="100mm"
     inkscape:zoom="2.0938812"
     inkscape:cx="115.33606"
     inkscape:cy="158.07965"
     inkscape:window-width="1920"
     inkscape:window-height="1017"
     inkscape:window-x="-8"
     inkscape:window-y="-8"
     inkscape:window-maximized="1"
     inkscape:current-layer="layer1" />
  <defs
     id="defs2">
    <inkscape:path-effect
       effect="spiro"
       id="path-effect4187"
       is_visible="true"
       lpeversion="1" />
    <inkscape:path-effect
       effect="spiro"
       id="path-effect4183"
       is_visible="true"
       lpeversion="1" />
    <inkscape:path-effect
       effect="spiro"
       id="path-effect4179"
       is_visible="true"
       lpeversion="1" />
    <inkscape:path-effect
       effect="spiro"
       id="path-effect2660"
       is_visible="true"
       lpeversion="1" />
    <inkscape:path-effect
       effect="spiro"
       id="path-effect2656"
       is_visible="true"
       lpeversion="1" />
    <inkscape:path-effect
       effect="spiro"
       id="path-effect2203"
       is_visible="true"
       lpeversion="1" />
    <inkscape:path-effect
       effect="spiro"
       id="path-effect1667"
       is_visible="true"
       lpeversion="1" />
    <inkscape:path-effect
       effect="spiro"
       id="path-effect1663"
       is_visible="true"
       lpeversion="1" />
    <inkscape:path-effect
       effect="spiro"
       id="path-effect1659"
       is_visible="true"
       lpeversion="1" />
    <inkscape:path-effect
       effect="spiro"
       id="path-effect1289"
       is_visible="true"
       lpeversion="1" />
    <inkscape:path-effect
       effect="spiro"
       id="path-effect1178"
       is_visible="true"
       lpeversion="1" />
    <inkscape:path-effect
       effect="spiro"
       id="path-effect2203-5"
       is_visible="true"
       lpeversion="1" />
    <inkscape:path-effect
       effect="spiro"
       id="path-effect2203-5-6"
       is_visible="true"
       lpeversion="1" />
    <inkscape:path-effect
       effect="spiro"
       id="path-effect2203-4"
       is_visible="true"
       lpeversion="1" />
    <inkscape:path-effect
       effect="spiro"
       id="path-effect2203-1"
       is_visible="true"
       lpeversion="1" />
    <inkscape:path-effect
       effect="spiro"
       id="path-effect2203-4-3"
       is_visible="true"
       lpeversion="1" />
    <inkscape:path-effect
       effect="spiro"
       id="path-effect2203-5-0"
       is_visible="true"
       lpeversion="1" />
    <inkscape:path-effect
       effect="spiro"
       id="path-effect2203-5-6-3"
       is_visible="true"
       lpeversion="1" />
    <inkscape:path-effect
       effect="spiro"
       id="path-effect2656-2"
       is_visible="true"
       lpeversion="1" />
    <inkscape:path-effect
       effect="spiro"
       id="path-effect2660-7"
       is_visible="true"
       lpeversion="1" />
  </defs>
  <g
     inkscape:label="Layer 1"
     inkscape:groupmode="layer"
     id="layer1">
    <path
       style="fill:none;fill-opacity:1;stroke:#000000;stroke-width:1.48032;stroke-linecap:round;stroke-linejoin:round;stroke-miterlimit:4;stroke-dasharray:none;stroke-opacity:1"
       d="m 79.868984,27.722378 c 0.903277,2.01787 2.815251,3.553138 4.980583,3.999284 1.973295,0.406579 4.11448,-0.09065 5.706666,-1.325214 1.592185,-1.234563 2.606994,-3.184454 2.704658,-5.196831 0.09766,-2.012377 -0.723556,-4.051373 -2.18871,-5.434314 -1.465154,-1.382941 -3.548126,-2.085177 -5.551519,-1.871594"
       id="path2201"
       inkscape:original-d="m 79.868984,27.722378 c 1.845887,2.206617 3.135018,1.793524 4.980583,3.999284 1.845569,2.205761 0.447553,-9.218206 0.671095,-13.827953"
       inkscape:path-effect="#path-effect2203"
       sodipodi:nodetypes="csc" />
    <path
       style="fill:none;fill-opacity:1;stroke:#000000;stroke-width:1.48032;stroke-linecap:round;stroke-linejoin:round;stroke-miterlimit:4;stroke-dasharray:none;stroke-opacity:1"
       d="m 14.509614,81.305323 c -0.205231,2.199044 0.55464,4.471049 2.041534,6.104162 1.550778,1.70328 3.869022,2.679461 6.171094,2.598562 2.302071,-0.0809 4.546072,-1.217402 5.973461,-3.02534 1.427389,-1.807937 2.012187,-4.254403 1.556715,-6.512416 -0.455472,-2.258013 -1.942924,-4.286477 -3.959553,-5.399709"
       id="path2201-9"
       inkscape:original-d="m 14.509614,81.305323 c 0.221088,2.845553 1.820206,3.259486 2.041534,6.104162 0.221325,2.844674 6.861689,-8.688525 9.741717,-12.338903"
       inkscape:path-effect="#path-effect2203-4"
       sodipodi:nodetypes="csc" />
    <path
       style="fill:none;fill-opacity:1;stroke:#000000;stroke-width:1.48032;stroke-linecap:round;stroke-linejoin:round;stroke-miterlimit:4;stroke-dasharray:none;stroke-opacity:1"
       d="m 85.520662,17.893709 c -0.04549,-1.550125 -0.626414,-3.079516 -1.621507,-4.268947 -0.995093,-1.189431 -2.39792,-2.031204 -3.915671,-2.349619 -1.58649,-0.332836 -3.28743,-0.0897 -4.717135,0.674287 -1.429706,0.763983 -2.577154,2.042919 -3.182162,3.546813 -0.605007,1.503893 -0.662911,3.221147 -0.16058,4.762378 0.502331,1.541231 1.561023,2.894554 2.936019,3.753108"
       id="path2201-3"
       inkscape:original-d="M 85.520662,17.893709 C 83.674775,15.687092 81.829049,13.480904 79.983484,11.275143 78.137919,9.0693819 75.083168,19.401981 74.859626,24.011729"
       inkscape:path-effect="#path-effect2203-5"
       sodipodi:nodetypes="csc" />
    <path
       style="fill:none;fill-opacity:1;stroke:#000000;stroke-width:1.48032;stroke-linecap:round;stroke-linejoin:round;stroke-miterlimit:4;stroke-dasharray:none;stroke-opacity:1"
       d="m 22.039023,70.009231 c -0.856843,-1.295564 -2.134426,-2.307986 -3.591512,-2.846099 -1.457087,-0.538112 -3.086042,-0.599096 -4.579285,-0.171435 -1.577312,0.451738 -2.993166,1.447836 -3.95121,2.779801 -0.9580442,1.331966 -1.4520422,2.991128 -1.3785956,4.630209 0.073447,1.639081 0.7138596,3.24741 1.7871946,4.48835 1.073335,1.24094 2.572605,2.106413 4.183999,2.415266"
       id="path2201-3-4"
       inkscape:original-d="M 22.039023,70.009231 C 19.315069,69.003094 16.59147,67.997249 13.868226,66.991697 11.144988,65.986145 12.352244,77.203583 14.509614,81.305323"
       inkscape:path-effect="#path-effect2203-5-6"
       sodipodi:nodetypes="csc" />
    <path
       style="fill:none;fill-opacity:1;stroke:#000000;stroke-width:1.48032;stroke-linecap:round;stroke-linejoin:round;stroke-miterlimit:4;stroke-dasharray:none;stroke-opacity:1"
       d="M 81.483408,29.846916 27.697195,75.913586"
       id="path2654"
       inkscape:path-effect="#path-effect2656"
       inkscape:original-d="M 81.483408,29.846916 C 63.450047,45.562927 45.731214,60.198218 27.697195,75.913586"
       sodipodi:nodetypes="cc" />
    <path
       style="fill:none;fill-opacity:1;stroke:#000000;stroke-width:1.48032;stroke-linecap:round;stroke-linejoin:round;stroke-miterlimit:4;stroke-dasharray:none;stroke-opacity:1"
       d="M 74.859629,24.011729 22.039023,70.009231"
       id="path2658"
       inkscape:path-effect="#path-effect2660"
       inkscape:original-d="M 74.859629,24.011729 C 57.25309,39.344551 39.646221,54.677055 22.039023,70.009231" />
    <path
       style="fill:#ffffff;fill-opacity:1;stroke:#000000;stroke-width:0.706975;stroke-linecap:round;stroke-linejoin:round;stroke-miterlimit:4;stroke-dasharray:none;stroke-opacity:1"
       d="m 20.374264,88.852848 c -2.977576,-0.933197 -5.000251,-3.621582 -5.000251,-6.645948 0,-1.358865 -0.110841,-1.521034 -1.25943,-1.842626 -3.247672,-0.909318 -5.3259214,-3.970417 -4.8718974,-7.175927 0.173676,-1.226191 1.0730244,-2.9741 1.9276314,-3.746404 3.09378,-2.795841 7.20078,-2.451203 10.06914,0.844947 0.260717,0.2996 0.581695,0.498892 0.803511,0.498892 0.267603,0 7.066084,-5.832539 24.675774,-21.169799 13.368521,-11.643391 25.351336,-22.074102 26.62848,-23.179361 2.703792,-2.339905 2.802671,-2.540684 1.638068,-3.326244 -0.965855,-0.651498 -1.647044,-1.462957 -2.210295,-2.632986 -0.432765,-0.89898 -0.486058,-1.163886 -0.482741,-2.399622 0.0049,-1.845467 0.401017,-2.838593 1.657031,-4.154956 1.224943,-1.283794 2.391379,-1.816355 4.185652,-1.911049 1.557428,-0.08219 2.676735,0.217522 3.873441,1.037188 1.469426,1.006459 2.634371,2.991578 2.634371,4.489087 0,0.908323 0.274746,1.131795 1.353787,1.101133 4.09437,-0.116347 7.23648,3.300902 6.63442,7.215382 -0.4873,3.168317 -3.65201,5.539119 -6.915946,5.180976 -1.78651,-0.196029 -3.884916,-1.569012 -4.816894,-3.151692 -0.226665,-0.38492 -0.486363,-0.75088 -0.577106,-0.813246 -0.333708,-0.229354 -0.871505,-0.110119 -1.1095,0.245989 -0.282879,0.423257 -0.221382,0.64353 0.486208,1.741551 L 80.20923,29.851879 54.442993,51.918454 C 40.271563,64.055068 28.43754,74.181684 28.145162,74.42204 c -0.520986,0.428291 -0.540876,0.431791 -0.996689,0.175319 -0.896871,-0.504645 -1.699008,-0.235075 -1.699008,0.57097 0,0.12957 0.518939,0.611832 1.153194,1.07169 3.061993,2.220059 4.015631,5.665342 2.460494,8.889218 -0.517132,1.072037 -1.80076,2.484115 -2.758202,3.034214 -1.744304,1.002189 -4.070035,1.272538 -5.930687,0.689397 z"
       id="path3912" />
    <path
       style="fill:none;fill-opacity:1;stroke:#000000;stroke-width:1.48032;stroke-linecap:round;stroke-linejoin:round;stroke-miterlimit:4;stroke-dasharray:none;stroke-opacity:1"
       d="m 21.640012,27.333864 c -0.903277,2.017871 -2.815252,3.553139 -4.980584,3.999285 -1.973295,0.406579 -4.11448,-0.09065 -5.706666,-1.325215 -1.5921856,-1.234562 -2.6069943,-3.184453 -2.7046585,-5.19683 -0.097664,-2.012378 0.7235567,-4.051374 2.1887105,-5.434315 1.465154,-1.382941 3.548126,-2.085177 5.551519,-1.871594"
       id="path2201-5"
       inkscape:original-d="m 21.640012,27.333864 c -1.845887,2.206617 -3.135018,1.793524 -4.980584,3.999285 -1.845564,2.20576 -0.447552,-9.218206 -0.671095,-13.827954"
       inkscape:path-effect="#path-effect2203-1"
       sodipodi:nodetypes="csc" />
    <path
       style="fill:none;fill-opacity:1;stroke:#000000;stroke-width:1.48032;stroke-linecap:round;stroke-linejoin:round;stroke-miterlimit:4;stroke-dasharray:none;stroke-opacity:1"
       d="m 86.999386,80.916809 c 0.20523,2.199044 -0.554643,4.471049 -2.041538,6.104162 -1.550779,1.703278 -3.869022,2.679457 -6.171092,2.598558 -2.30207,-0.0809 -4.546069,-1.217403 -5.973458,-3.02534 -1.427388,-1.807936 -2.012187,-4.2544 -1.556716,-6.512412 0.455471,-2.258012 1.942921,-4.286476 3.959548,-5.399709"
       id="path2201-9-6"
       inkscape:original-d="m 86.999386,80.916809 c -0.22109,2.845553 -1.82021,3.259487 -2.041538,6.104162 -0.221325,2.844674 -6.861689,-8.688525 -9.741718,-12.338903"
       inkscape:path-effect="#path-effect2203-4-3"
       sodipodi:nodetypes="csc" />
    <path
       style="fill:none;fill-opacity:1;stroke:#000000;stroke-width:1.48032;stroke-linecap:round;stroke-linejoin:round;stroke-miterlimit:4;stroke-dasharray:none;stroke-opacity:1"
       d="m 15.988333,17.505195 c 0.04549,-1.550125 0.626414,-3.079516 1.621507,-4.268947 0.995094,-1.189431 2.397921,-2.031204 3.915672,-2.349619 1.58649,-0.332836 3.287429,-0.0897 4.717135,0.674287 1.429706,0.763984 2.577153,2.04292 3.182161,3.546813 0.605008,1.503893 0.662911,3.221147 0.16058,4.762377 -0.502331,1.541231 -1.561022,2.894555 -2.936018,3.753109"
       id="path2201-3-7"
       inkscape:original-d="m 15.988333,17.505195 c 1.845887,-2.206617 3.691614,-4.412805 5.537179,-6.618566 1.845564,-2.2057607 4.900316,8.126838 5.123858,12.736586"
       inkscape:path-effect="#path-effect2203-5-0"
       sodipodi:nodetypes="csc" />
    <path
       style="fill:none;fill-opacity:1;stroke:#000000;stroke-width:1.48032;stroke-linecap:round;stroke-linejoin:round;stroke-miterlimit:4;stroke-dasharray:none;stroke-opacity:1"
       d="m 79.469973,69.620717 c 0.856843,-1.295563 2.134425,-2.307984 3.591511,-2.846097 1.457086,-0.538112 3.08604,-0.599096 4.579282,-0.171436 1.577312,0.451737 2.993166,1.447834 3.95121,2.779799 0.958045,1.331965 1.452044,2.991126 1.378598,4.630207 -0.07345,1.639081 -0.713857,3.24741 -1.787192,4.488351 -1.073334,1.24094 -2.572603,2.106414 -4.183996,2.415268"
       id="path2201-3-4-2"
       inkscape:original-d="m 79.469973,69.620717 c 2.723954,-1.006137 5.447553,-2.011981 8.170793,-3.017533 2.72324,-1.005553 1.51599,10.211885 -0.64138,14.313625"
       inkscape:path-effect="#path-effect2203-5-6-3"
       sodipodi:nodetypes="csc" />
    <path
       style="fill:none;fill-opacity:1;stroke:#000000;stroke-width:1.48032;stroke-linecap:round;stroke-linejoin:round;stroke-miterlimit:4;stroke-dasharray:none;stroke-opacity:1"
       d="m 20.025588,29.458402 53.786213,46.06667"
       id="path2654-4"
       inkscape:path-effect="#path-effect2656-2"
       inkscape:original-d="m 20.025588,29.458402 c 18.033361,15.716012 35.752194,30.351302 53.786213,46.06667"
       sodipodi:nodetypes="cc" />
    <path
       style="fill:none;fill-opacity:1;stroke:#000000;stroke-width:1.48032;stroke-linecap:round;stroke-linejoin:round;stroke-miterlimit:4;stroke-dasharray:none;stroke-opacity:1"
       d="M 26.649367,23.623215 79.469973,69.620717"
       id="path2658-5"
       inkscape:path-effect="#path-effect2660-7"
       inkscape:original-d="M 26.649367,23.623215 C 44.255906,38.956038 61.862775,54.288541 79.469973,69.620717" />
    <path
       style="fill:#ffffff;fill-opacity:1;stroke:#000000;stroke-width:0.706974;stroke-linecap:round;stroke-linejoin:round;stroke-miterlimit:4;stroke-dasharray:none;stroke-opacity:1"
       d="m 81.134731,88.464334 c 2.977577,-0.933197 5.000255,-3.621581 5.000255,-6.645948 0,-1.358865 0.11084,-1.521034 1.25943,-1.842626 3.24767,-0.909318 5.32592,-3.970417 4.87189,-7.175926 -0.17367,-1.226191 -1.07302,-2.9741 -1.92763,-3.746406 -3.09378,-2.795839 -7.200776,-2.451202 -10.069137,0.844949 -0.260717,0.2996 -0.581695,0.498891 -0.803512,0.498891 -0.267602,0 -7.066083,-5.832538 -24.675774,-21.169799 C 41.421732,37.584079 29.438918,27.153367 28.161774,26.048108 c -2.703792,-2.339904 -2.802671,-2.540684 -1.638068,-3.326244 0.965854,-0.651498 1.647044,-1.462956 2.210295,-2.632986 0.432764,-0.89898 0.486058,-1.163885 0.482741,-2.399622 -0.005,-1.845467 -0.401017,-2.838592 -1.657032,-4.154956 -1.224942,-1.283793 -2.391378,-1.816355 -4.185651,-1.911049 -1.557428,-0.08219 -2.676735,0.217523 -3.873441,1.037189 -1.469426,1.006459 -2.634371,2.991578 -2.634371,4.489086 0,0.908323 -0.274746,1.131795 -1.353785,1.101133 -4.094375,-0.116343 -7.2364794,3.300902 -6.6344204,7.215382 0.487297,3.168317 3.6520124,5.539119 6.9159444,5.180977 1.78651,-0.19603 3.884915,-1.569013 4.816894,-3.151693 0.226664,-0.384919 0.486363,-0.75088 0.577106,-0.813246 0.333709,-0.229354 0.871505,-0.110114 1.1095,0.245989 0.282879,0.423257 0.221381,0.64353 -0.486209,1.741551 l -0.511511,0.793747 25.766238,22.066574 c 14.171428,12.136614 26.005451,22.26323 26.297831,22.503586 0.520984,0.428291 0.540875,0.431791 0.996688,0.175319 0.896871,-0.504644 1.699007,-0.235074 1.699007,0.570969 0,0.129572 -0.518938,0.611833 -1.153194,1.071691 -3.061993,2.220059 -4.01563,5.665342 -2.460493,8.889219 0.517132,1.072035 1.800761,2.484114 2.758202,3.034213 1.744304,1.002189 4.070034,1.272538 5.930686,0.689397 z"
       id="path3912-5" />
    <ellipse
       style="fill:#000000;fill-opacity:1;stroke-width:1.1986;stroke-linecap:round;stroke-linejoin:round"
       id="path924"
       cx="50.622414"
       cy="35.791866"
       rx="25"
       ry="20" />
    <rect
       style="fill:#000000;fill-opacity:1;stroke:none;stroke-width:1.14246;stroke-linecap:round;stroke-linejoin:round;stroke-miterlimit:4;stroke-dasharray:none;stroke-opacity:1"
       id="rect1964"
       width="25"
       height="25"
       x="38.122414"
       y="45.791866" />
    <ellipse
       style="fill:#ffffff;fill-opacity:1;stroke-width:1.05672;stroke-linecap:round;stroke-linejoin:round"
       id="path924-1"
       cx="50.622414"
       cy="35.564594"
       rx="22.5"
       ry="17.272728" />
    <rect
       style="fill:#ffffff;fill-opacity:1;stroke:none;stroke-width:0.936544;stroke-linecap:round;stroke-linejoin:round;stroke-miterlimit:4;stroke-dasharray:none;stroke-opacity:1"
       id="rect1964-1"
       width="20"
       height="21"
       x="40.622414"
       y="46.791866" />
    <path
       style="fill:#ffffff;fill-opacity:1;stroke:#000000;stroke-width:1.2;stroke-linecap:round;stroke-linejoin:round;stroke-miterlimit:4;stroke-dasharray:none;stroke-opacity:1"
       d="M 45.596215,68.739854 V 54.443826"
       id="path4177"
       inkscape:path-effect="#path-effect4179"
       inkscape:original-d="m 45.596215,68.739854 c 2.64e-4,-4.765077 2.64e-4,-9.530421 0,-14.296028" />
    <path
       style="fill:#ffffff;fill-opacity:1;stroke:#000000;stroke-width:1.2;stroke-linecap:round;stroke-linejoin:round;stroke-miterlimit:4;stroke-dasharray:none;stroke-opacity:1"
       d="m 50.778526,68.203752 0.714801,-9.649817"
       id="path4181"
       inkscape:path-effect="#path-effect4183"
       inkscape:original-d="m 50.778526,68.203752 c 0.238533,-3.216341 0.476798,-6.432946 0.714801,-9.649817" />
    <path
       style="fill:#ffffff;fill-opacity:1;stroke:#000000;stroke-width:1.2;stroke-linecap:round;stroke-linejoin:round;stroke-miterlimit:4;stroke-dasharray:none;stroke-opacity:1"
       d="M 57.211741,68.561154 56.318237,55.337327"
       id="path4185"
       inkscape:path-effect="#path-effect4187"
       inkscape:original-d="M 57.211741,68.561154 C 56.914169,64.153476 56.616335,59.745534 56.318237,55.337327" />
    <ellipse
       style="fill:#000000;fill-opacity:1;stroke:#000000;stroke-width:1.20002;stroke-linecap:round;stroke-linejoin:round;stroke-miterlimit:4;stroke-dasharray:none;stroke-opacity:1"
       id="path4233"
       cx="59.782501"
       cy="32.799458"
       rx="5.1824903"
       ry="4.1994491" />
    <ellipse
       style="fill:#000000;fill-opacity:1;stroke:#000000;stroke-width:1.2;stroke-linecap:round;stroke-linejoin:round;stroke-miterlimit:4;stroke-dasharray:none;stroke-opacity:1"
       id="path4233-9"
       cx="42.083939"
       cy="32.799458"
       rx="5.1823106"
       ry="4.1994586" />
  </g>
</svg>
